<?xml version="1.0" encoding="iso-8859-1"?>
<!-- Uploaded to: SVG Repo, www.svgrepo.com, Generator: SVG Repo Mixer Tools -->
<svg fill="#000000" height="800px" width="800px" version="1.1" id="Layer_1" xmlns="http://www.w3.org/2000/svg" xmlns:xlink="http://www.w3.org/1999/xlink" 
	 viewBox="0 0 511.999 511.999" xml:space="preserve">
<g>
	<g>
		<path d="M511.277,70.623c-2.554-9.528-12.351-15.181-21.874-12.63l-48.504,12.996l12.998-48.503
			c2.553-9.528-3.101-19.321-12.628-21.874c-9.524-2.552-19.323,3.101-21.875,12.628l-13.538,50.525
			c-42.674-33.556-96.457-53.593-154.83-53.593C112.669,10.173,0.11,122.732,0.11,261.085
			c0,138.355,112.559,250.914,250.914,250.914S501.938,399.44,501.938,261.085c0-58.48-20.113-112.349-53.781-155.061l50.489-13.529
			C508.174,89.944,513.829,80.151,511.277,70.623z M466.219,261.087c-0.001,118.658-96.536,215.193-215.195,215.193
			S35.831,379.745,35.831,261.087c0-118.657,96.535-215.192,215.193-215.192c52.857,0,101.313,19.167,138.813,50.9l-49.122,49.122
			c-24.77-19.333-55.908-30.869-89.691-30.869c-80.526,0-146.04,65.513-146.04,146.039c0,80.527,65.513,146.04,146.04,146.04
			c80.526,0,146.039-65.513,146.039-146.04c0-33.897-11.61-65.132-31.06-89.942l49.111-49.111
			C446.97,159.566,466.219,208.116,466.219,261.087z M238.284,273.605c6.973,6.974,18.282,6.976,25.258,0l76.964-76.964
			c13.104,18.143,20.837,40.406,20.837,64.445c0,60.83-49.489,110.32-110.319,110.32s-110.32-49.489-110.32-110.32
			c0-60.83,49.489-110.319,110.32-110.319c23.926,0,46.094,7.66,64.189,20.65l-76.929,76.929
			C231.309,255.321,231.309,266.63,238.284,273.605z"/>
	</g>
</g>
</svg>